<?xml version="1.0" encoding="utf-8"?>
<!-- Generator: Adobe Illustrator 27.2.0, SVG Export Plug-In . SVG Version: 6.00 Build 0)  -->
<svg version="1.1" id="Layer_1" xmlns="http://www.w3.org/2000/svg" xmlns:xlink="http://www.w3.org/1999/xlink" x="0px" y="0px"
	 viewBox="0 0 1100 740" style="enable-background:new 0 0 1100 740;" xml:space="preserve">
<style type="text/css">
	.st0{fill:#06133F;}
	.st1{fill:none;}
	.st2{fill:#F99C10;}
</style>
<!-- background removed to make SVG transparent -->
<g>
	<g>
		<g>
			<g>
				<g>
					<g>
						<path class="st0" d="M453.4,351.9h15.2v53.9h-15.2v-13.8h-0.6c-2.8,9.4-10.5,15.4-20.3,15.4c-13,0-22.7-10.4-22.7-28.6
							c0-18.1,9.7-28.5,23.5-28.5c9,0,16.7,5.8,19.6,14.6h0.6V351.9z M452.7,377.9c-0.2-10.1-5.8-16.7-13.7-16.7
							c-8,0-13.7,6.4-14,16.5v2c0.3,10,6.2,16.7,14,16.7c8,0,13.6-6.9,13.7-16.9V377.9z"/>
					</g>
				</g>
				<g>
					<g>
						<path class="st0" d="M540,379c0,16.7-9.2,28.5-22.6,28.5c-10.2,0-17.6-5.9-20.5-15.3h-0.5v37.3h-15.2v-77.5h15.2v13.8h0.5
							c2.8-9.3,10.7-15.4,20.6-15.4C530.3,350.4,540,360.7,540,379z M524.8,378c-0.3-9.9-6.2-16.7-14-16.7c-8,0-13.6,6.9-13.8,16.9
							v1.7c0.2,10.1,5.8,16.7,13.8,16.7c8,0,13.6-6.4,14-16.5V378z"/>
					</g>
				</g>
				<g>
					<g>
						<path class="st0" d="M610.4,379c0,16.7-9.2,28.5-22.6,28.5c-10.2,0-17.6-5.9-20.5-15.3h-0.5v37.3h-15.2v-77.5h15.2v13.8h0.5
							c2.8-9.3,10.7-15.4,20.6-15.4C600.7,350.4,610.4,360.7,610.4,379z M595.2,378c-0.3-9.9-6.2-16.7-14-16.7
							c-8,0-13.6,6.9-13.8,16.9v1.7c0.2,10.1,5.8,16.7,13.8,16.7c8,0,13.6-6.4,14-16.5V378z"/>
					</g>
				</g>
				<g>
					<g>
						<path class="st0" d="M663.5,351.9h15.2v53.9h-15.2v-13.8h-0.6c-2.8,9.4-10.5,15.4-20.3,15.4c-13,0-22.7-10.4-22.7-28.6
							c0-18.1,9.7-28.5,23.5-28.5c9,0,16.7,5.8,19.6,14.6h0.6V351.9z M662.8,377.9c-0.2-10.1-5.8-16.7-13.7-16.7s-13.7,6.4-14,16.5
							v2c0.3,10,6.2,16.7,14,16.7c8,0,13.6-6.9,13.7-16.9V377.9z"/>
					</g>
				</g>
				<g>
					<g>
						<path class="st0" d="M745.8,373v32.9h-15.2v-31.2c0-9.4-4.3-12.8-10.2-12.8c-6.5,0-11.3,5.2-14,11.2v32.8h-15.2v-53.9h15.2
							v13.6h0.5c4.3-10.1,11.2-15.2,20.5-15.2C739.5,350.4,745.8,358.1,745.8,373z"/>
					</g>
				</g>
				<g>
					<rect x="757.3" y="329.4" class="st2" width="15.2" height="13.5"/>
				</g>
				<g>
					<rect x="757.3" y="351.9" class="st0" width="15.2" height="53.9"/>
				</g>
				<g>
					<g>
						<path class="st0" d="M826.6,328.4h15.2v77.5h-15.2v-13.8h-0.6c-2.8,9.4-10.5,15.4-20.3,15.4c-13,0-22.7-10.4-22.7-28.6
							c-0.1-18.1,9.7-28.5,23.5-28.5c9,0,16.7,5.8,19.6,14.6h0.6V328.4z M825.8,377.9c-0.2-10.1-5.8-16.7-13.7-16.7
							c-8,0-13.7,6.4-14,16.5v2c0.3,10,6.2,16.7,14,16.7c8,0,13.6-6.9,13.7-16.9V377.9z"/>
					</g>
				</g>
			</g>
		</g>
		<path class="st2" d="M389.7,413.5l-28.3-49.1l2-3.4l12.3-21.3l8.2,12.3l-0.3-25.9l-0.2-17.6l-15.6,9.3l-21.7,12.9l14,0.5
			l-8.8,15.3l-0.3-0.5l-11.4-19.7l-10.3-17.8l-10.3,17.8l-50.3,87.1l-10.3,17.8h20.6h22.7h20.6l10.3-17.8l18.3-31.7l18.3,31.7h-21.8
			v17.8h32.1H400L389.7,413.5z M311.8,413.5h-22.7l40-69.3l11.4,19.7L311.8,413.5z"/>
	</g>
</g>
</svg>
